<svg xmlns="http://www.w3.org/2000/svg" xmlns:xlink="http://www.w3.org/1999/xlink" width="500" zoomAndPan="magnify" viewBox="0 0 375 374.999991" height="500" preserveAspectRatio="xMidYMid meet" version="1.0"><defs><g/><clipPath id="02d5c6dde6"><path d="M 48.75 48.234375 L 326.25 48.234375 L 326.25 325.734375 L 48.75 325.734375 Z M 48.75 48.234375 " clip-rule="nonzero"/></clipPath></defs><g clip-path="url(#02d5c6dde6)"><path fill="#ceaf67" d="M 187.5 48.234375 C 110.871094 48.234375 48.75 110.355469 48.75 186.984375 C 48.75 263.613281 110.871094 325.734375 187.5 325.734375 C 264.128906 325.734375 326.25 263.613281 326.25 186.984375 C 326.25 110.355469 264.128906 48.234375 187.5 48.234375 " fill-opacity="1" fill-rule="nonzero"/></g><g fill="#ffffff" fill-opacity="1"><g transform="translate(106.013669, 199.359961)"><g><path d="M 24.984375 0.359375 L 7.890625 -22.171875 L 7.734375 -22.171875 L 7.734375 -6.796875 C 7.734375 -5.597656 7.773438 -4.648438 7.859375 -3.953125 C 7.941406 -3.265625 8.109375 -2.726562 8.359375 -2.34375 C 8.617188 -1.957031 8.984375 -1.703125 9.453125 -1.578125 C 9.921875 -1.460938 10.535156 -1.394531 11.296875 -1.375 L 11.296875 0 L 1.625 0 L 1.625 -1.375 C 2.457031 -1.394531 3.128906 -1.46875 3.640625 -1.59375 C 4.160156 -1.726562 4.566406 -1.972656 4.859375 -2.328125 C 5.148438 -2.691406 5.34375 -3.203125 5.4375 -3.859375 C 5.53125 -4.523438 5.578125 -5.421875 5.578125 -6.546875 L 5.578125 -21.171875 C 5.578125 -22.179688 5.535156 -23.015625 5.453125 -23.671875 C 5.367188 -24.328125 5.203125 -24.847656 4.953125 -25.234375 C 4.703125 -25.617188 4.332031 -25.890625 3.84375 -26.046875 C 3.363281 -26.203125 2.742188 -26.304688 1.984375 -26.359375 L 1.984375 -27.71875 L 9.109375 -27.71875 L 24.84375 -6.734375 L 24.984375 -6.734375 L 24.984375 -20.921875 C 24.984375 -22.097656 24.941406 -23.035156 24.859375 -23.734375 C 24.773438 -24.441406 24.601562 -24.988281 24.34375 -25.375 C 24.09375 -25.757812 23.734375 -26.007812 23.265625 -26.125 C 22.804688 -26.25 22.191406 -26.328125 21.421875 -26.359375 L 21.421875 -27.71875 L 31.109375 -27.71875 L 31.109375 -26.359375 C 30.265625 -26.328125 29.582031 -26.242188 29.0625 -26.109375 C 28.550781 -25.984375 28.148438 -25.738281 27.859375 -25.375 C 27.578125 -25.019531 27.382812 -24.503906 27.28125 -23.828125 C 27.1875 -23.160156 27.140625 -22.273438 27.140625 -21.171875 L 27.140625 0.359375 Z M 24.984375 0.359375 "/></g></g></g><g fill="#ffffff" fill-opacity="1"><g transform="translate(138.485728, 199.359961)"><g><path d="M 25.984375 -11.15625 C 25.984375 -9.257812 25.796875 -7.59375 25.421875 -6.15625 C 25.054688 -4.71875 24.457031 -3.515625 23.625 -2.546875 C 22.800781 -1.585938 21.726562 -0.863281 20.40625 -0.375 C 19.09375 0.113281 17.5 0.359375 15.625 0.359375 C 13.84375 0.359375 12.289062 0.1875 10.96875 -0.15625 C 9.65625 -0.507812 8.554688 -1.085938 7.671875 -1.890625 C 6.785156 -2.691406 6.125 -3.738281 5.6875 -5.03125 C 5.257812 -6.332031 5.046875 -7.929688 5.046875 -9.828125 L 5.046875 -19.328125 C 5.046875 -21.109375 5 -22.476562 4.90625 -23.4375 C 4.820312 -24.394531 4.578125 -25.101562 4.171875 -25.5625 C 3.890625 -25.875 3.5 -26.082031 3 -26.1875 C 2.507812 -26.300781 1.859375 -26.359375 1.046875 -26.359375 L 1.046875 -27.71875 L 13.3125 -27.71875 L 13.3125 -26.359375 C 12.5 -26.359375 11.835938 -26.304688 11.328125 -26.203125 C 10.828125 -26.109375 10.4375 -25.867188 10.15625 -25.484375 C 9.8125 -25.054688 9.59375 -24.367188 9.5 -23.421875 C 9.40625 -22.472656 9.359375 -21.109375 9.359375 -19.328125 L 9.359375 -9.546875 C 9.359375 -8.316406 9.484375 -7.226562 9.734375 -6.28125 C 9.984375 -5.332031 10.394531 -4.523438 10.96875 -3.859375 C 11.550781 -3.203125 12.300781 -2.707031 13.21875 -2.375 C 14.144531 -2.039062 15.28125 -1.875 16.625 -1.875 C 19.03125 -1.875 20.832031 -2.539062 22.03125 -3.875 C 23.226562 -5.207031 23.828125 -7.164062 23.828125 -9.75 L 23.828125 -18.4375 C 23.828125 -20.570312 23.742188 -22.191406 23.578125 -23.296875 C 23.410156 -24.398438 23.097656 -25.175781 22.640625 -25.625 C 22.304688 -25.9375 21.882812 -26.132812 21.375 -26.21875 C 20.875 -26.3125 20.253906 -26.359375 19.515625 -26.359375 L 19.515625 -27.71875 L 29.953125 -27.71875 L 29.953125 -26.359375 C 29.179688 -26.359375 28.550781 -26.296875 28.0625 -26.171875 C 27.570312 -26.046875 27.179688 -25.78125 26.890625 -25.375 C 26.535156 -24.875 26.296875 -24.085938 26.171875 -23.015625 C 26.046875 -21.953125 25.984375 -20.425781 25.984375 -18.4375 Z M 25.984375 -11.15625 "/></g></g></g><g fill="#ffffff" fill-opacity="1"><g transform="translate(169.481785, 199.359961)"><g><path d="M 9.359375 -15.234375 C 10.648438 -15.234375 11.734375 -15.3125 12.609375 -15.46875 C 13.492188 -15.625 14.191406 -15.867188 14.703125 -16.203125 C 15.222656 -16.535156 15.59375 -16.960938 15.8125 -17.484375 C 16.039062 -18.015625 16.15625 -18.644531 16.15625 -19.375 L 17.421875 -19.375 L 17.421875 -9.546875 L 16.15625 -9.546875 C 16.15625 -10.265625 16.050781 -10.882812 15.84375 -11.40625 C 15.644531 -11.9375 15.285156 -12.375 14.765625 -12.71875 C 14.253906 -13.070312 13.5625 -13.335938 12.6875 -13.515625 C 11.8125 -13.691406 10.703125 -13.78125 9.359375 -13.78125 L 9.359375 -5.65625 C 9.359375 -4.863281 9.453125 -4.207031 9.640625 -3.6875 C 9.835938 -3.175781 10.171875 -2.753906 10.640625 -2.421875 C 11.109375 -2.097656 11.722656 -1.867188 12.484375 -1.734375 C 13.253906 -1.609375 14.207031 -1.546875 15.34375 -1.546875 C 16.613281 -1.546875 17.691406 -1.632812 18.578125 -1.8125 C 19.460938 -2 20.203125 -2.304688 20.796875 -2.734375 C 21.398438 -3.171875 21.878906 -3.742188 22.234375 -4.453125 C 22.597656 -5.160156 22.898438 -6.039062 23.140625 -7.09375 L 24.515625 -7.09375 L 23.96875 0 L 1.625 0 L 1.625 -1.375 C 2.457031 -1.394531 3.128906 -1.460938 3.640625 -1.578125 C 4.160156 -1.703125 4.566406 -1.90625 4.859375 -2.1875 C 5.148438 -2.476562 5.34375 -2.890625 5.4375 -3.421875 C 5.53125 -3.953125 5.578125 -4.632812 5.578125 -5.46875 L 5.578125 -22.25 C 5.578125 -23.09375 5.535156 -23.769531 5.453125 -24.28125 C 5.367188 -24.800781 5.203125 -25.207031 4.953125 -25.5 C 4.703125 -25.800781 4.332031 -26.003906 3.84375 -26.109375 C 3.363281 -26.222656 2.742188 -26.304688 1.984375 -26.359375 L 1.984375 -27.71875 L 22.78125 -27.71875 L 23.109375 -21.390625 L 21.859375 -21.390625 C 21.710938 -22.347656 21.472656 -23.128906 21.140625 -23.734375 C 20.816406 -24.347656 20.375 -24.832031 19.8125 -25.1875 C 19.25 -25.550781 18.535156 -25.804688 17.671875 -25.953125 C 16.804688 -26.097656 15.765625 -26.171875 14.546875 -26.171875 L 9.96875 -26.171875 C 9.5625 -26.171875 9.359375 -25.96875 9.359375 -25.5625 Z M 9.359375 -15.234375 "/></g></g></g><g fill="#ffffff" fill-opacity="1"><g transform="translate(195.617835, 199.359961)"><g><path d="M 15.265625 -5.515625 L 21.59375 -21.125 C 21.957031 -22.019531 22.210938 -22.71875 22.359375 -23.21875 C 22.503906 -23.71875 22.578125 -24.175781 22.578125 -24.59375 C 22.578125 -25.238281 22.378906 -25.691406 21.984375 -25.953125 C 21.585938 -26.222656 20.847656 -26.359375 19.765625 -26.359375 L 19.765625 -27.71875 L 28.515625 -27.71875 L 28.515625 -26.359375 C 27.960938 -26.285156 27.488281 -26.1875 27.09375 -26.0625 C 26.695312 -25.945312 26.347656 -25.78125 26.046875 -25.5625 C 25.742188 -25.34375 25.476562 -25.054688 25.25 -24.703125 C 25.019531 -24.359375 24.800781 -23.9375 24.59375 -23.4375 L 14.828125 0.359375 L 13.578125 0.359375 L 4.28125 -22.0625 C 3.96875 -22.78125 3.660156 -23.40625 3.359375 -23.9375 C 3.066406 -24.46875 2.738281 -24.898438 2.375 -25.234375 C 2.019531 -25.566406 1.613281 -25.816406 1.15625 -25.984375 C 0.695312 -26.160156 0.15625 -26.269531 -0.46875 -26.3125 L -0.46875 -27.71875 L 11.265625 -27.71875 L 11.265625 -26.3125 C 10.597656 -26.3125 10.050781 -26.28125 9.625 -26.21875 C 9.207031 -26.164062 8.878906 -26.070312 8.640625 -25.9375 C 8.398438 -25.800781 8.226562 -25.632812 8.125 -25.4375 C 8.03125 -25.25 7.984375 -25.035156 7.984375 -24.796875 C 7.984375 -24.460938 8.046875 -24.070312 8.171875 -23.625 C 8.296875 -23.1875 8.523438 -22.546875 8.859375 -21.703125 Z M 15.265625 -5.515625 "/></g></g></g><g fill="#ffffff" fill-opacity="1"><g transform="translate(223.841893, 199.359961)"><g><path d="M 17.03125 -28.078125 C 19.144531 -28.078125 21.113281 -27.703125 22.9375 -26.953125 C 24.757812 -26.210938 26.34375 -25.191406 27.6875 -23.890625 C 29.03125 -22.597656 30.082031 -21.078125 30.84375 -19.328125 C 31.613281 -17.578125 32 -15.679688 32 -13.640625 C 32 -11.703125 31.609375 -9.878906 30.828125 -8.171875 C 30.046875 -6.460938 28.984375 -4.976562 27.640625 -3.71875 C 26.296875 -2.46875 24.710938 -1.472656 22.890625 -0.734375 C 21.066406 -0.00390625 19.113281 0.359375 17.03125 0.359375 C 14.9375 0.359375 12.976562 -0.00390625 11.15625 -0.734375 C 9.332031 -1.472656 7.75 -2.46875 6.40625 -3.71875 C 5.0625 -4.976562 4 -6.460938 3.21875 -8.171875 C 2.4375 -9.878906 2.046875 -11.703125 2.046875 -13.640625 C 2.046875 -15.679688 2.429688 -17.578125 3.203125 -19.328125 C 3.972656 -21.078125 5.03125 -22.597656 6.375 -23.890625 C 7.71875 -25.191406 9.300781 -26.210938 11.125 -26.953125 C 12.945312 -27.703125 14.914062 -28.078125 17.03125 -28.078125 Z M 17.03125 -1.625 C 18.613281 -1.625 20.035156 -1.898438 21.296875 -2.453125 C 22.554688 -3.003906 23.632812 -3.796875 24.53125 -4.828125 C 25.4375 -5.859375 26.128906 -7.109375 26.609375 -8.578125 C 27.085938 -10.054688 27.328125 -11.707031 27.328125 -13.53125 C 27.328125 -15.457031 27.085938 -17.191406 26.609375 -18.734375 C 26.128906 -20.285156 25.441406 -21.609375 24.546875 -22.703125 C 23.660156 -23.796875 22.582031 -24.632812 21.3125 -25.21875 C 20.039062 -25.800781 18.613281 -26.09375 17.03125 -26.09375 C 15.445312 -26.09375 14.019531 -25.800781 12.75 -25.21875 C 11.476562 -24.632812 10.394531 -23.796875 9.5 -22.703125 C 8.613281 -21.609375 7.929688 -20.285156 7.453125 -18.734375 C 6.972656 -17.191406 6.734375 -15.457031 6.734375 -13.53125 C 6.734375 -11.707031 6.972656 -10.054688 7.453125 -8.578125 C 7.929688 -7.109375 8.613281 -5.859375 9.5 -4.828125 C 10.394531 -3.796875 11.476562 -3.003906 12.75 -2.453125 C 14.019531 -1.898438 15.445312 -1.625 17.03125 -1.625 Z M 17.03125 -1.625 "/></g></g></g><g fill="#ffffff" fill-opacity="1"><g transform="translate(257.897963, 199.359961)"><g><path d="M 3.203125 -1.984375 C 3.203125 -2.648438 3.429688 -3.210938 3.890625 -3.671875 C 4.347656 -4.128906 4.898438 -4.359375 5.546875 -4.359375 C 6.210938 -4.359375 6.773438 -4.128906 7.234375 -3.671875 C 7.691406 -3.210938 7.921875 -2.648438 7.921875 -1.984375 C 7.921875 -1.335938 7.691406 -0.785156 7.234375 -0.328125 C 6.773438 0.128906 6.210938 0.359375 5.546875 0.359375 C 4.898438 0.359375 4.347656 0.128906 3.890625 -0.328125 C 3.429688 -0.785156 3.203125 -1.335938 3.203125 -1.984375 Z M 4.6875 -7.453125 C 4.6875 -9.367188 4.664062 -11 4.625 -12.34375 C 4.59375 -13.6875 4.53125 -14.863281 4.4375 -15.875 C 4.351562 -16.882812 4.25 -17.785156 4.125 -18.578125 C 4.007812 -19.367188 3.882812 -20.1875 3.75 -21.03125 C 3.625 -21.695312 3.523438 -22.25 3.453125 -22.6875 C 3.378906 -23.132812 3.320312 -23.519531 3.28125 -23.84375 C 3.25 -24.175781 3.226562 -24.476562 3.21875 -24.75 C 3.207031 -25.019531 3.203125 -25.335938 3.203125 -25.703125 C 3.203125 -26.347656 3.410156 -26.90625 3.828125 -27.375 C 4.253906 -27.84375 4.828125 -28.078125 5.546875 -28.078125 C 6.265625 -28.078125 6.832031 -27.84375 7.25 -27.375 C 7.675781 -26.90625 7.890625 -26.347656 7.890625 -25.703125 C 7.890625 -25.367188 7.890625 -25.0625 7.890625 -24.78125 C 7.890625 -24.507812 7.867188 -24.203125 7.828125 -23.859375 C 7.796875 -23.523438 7.742188 -23.125 7.671875 -22.65625 C 7.597656 -22.1875 7.488281 -21.59375 7.34375 -20.875 C 7.195312 -20.082031 7.0625 -19.296875 6.9375 -18.515625 C 6.820312 -17.742188 6.726562 -16.859375 6.65625 -15.859375 C 6.582031 -14.859375 6.519531 -13.6875 6.46875 -12.34375 C 6.425781 -11 6.40625 -9.367188 6.40625 -7.453125 Z M 4.6875 -7.453125 "/></g></g></g></svg>