<svg xmlns="http://www.w3.org/2000/svg" xmlns:xlink="http://www.w3.org/1999/xlink" width="500" zoomAndPan="magnify" viewBox="0 0 375 374.999991" height="500" preserveAspectRatio="xMidYMid meet" version="1.0"><defs><g/><clipPath id="f0099967ad"><path d="M 48.75 48.75 L 326.25 48.75 L 326.25 326.25 L 48.75 326.25 Z M 48.75 48.75 " clip-rule="nonzero"/></clipPath></defs><g clip-path="url(#f0099967ad)"><path fill="#970c10" d="M 187.5 48.75 C 110.871094 48.75 48.75 110.871094 48.75 187.5 C 48.75 264.128906 110.871094 326.25 187.5 326.25 C 264.128906 326.25 326.25 264.128906 326.25 187.5 C 326.25 110.871094 264.128906 48.75 187.5 48.75 " fill-opacity="1" fill-rule="nonzero"/></g><g fill="#ffffff" fill-opacity="1"><g transform="translate(97.265624, 199.359947)"><g><path d="M 17.03125 -28.078125 C 19.144531 -28.078125 21.113281 -27.703125 22.9375 -26.953125 C 24.757812 -26.210938 26.34375 -25.191406 27.6875 -23.890625 C 29.03125 -22.597656 30.082031 -21.078125 30.84375 -19.328125 C 31.613281 -17.578125 32 -15.679688 32 -13.640625 C 32 -11.703125 31.609375 -9.878906 30.828125 -8.171875 C 30.046875 -6.460938 28.984375 -4.976562 27.640625 -3.71875 C 26.296875 -2.46875 24.710938 -1.472656 22.890625 -0.734375 C 21.066406 -0.00390625 19.113281 0.359375 17.03125 0.359375 C 14.9375 0.359375 12.976562 -0.00390625 11.15625 -0.734375 C 9.332031 -1.472656 7.75 -2.46875 6.40625 -3.71875 C 5.0625 -4.976562 4 -6.460938 3.21875 -8.171875 C 2.4375 -9.878906 2.046875 -11.703125 2.046875 -13.640625 C 2.046875 -15.679688 2.429688 -17.578125 3.203125 -19.328125 C 3.972656 -21.078125 5.03125 -22.597656 6.375 -23.890625 C 7.71875 -25.191406 9.300781 -26.210938 11.125 -26.953125 C 12.945312 -27.703125 14.914062 -28.078125 17.03125 -28.078125 Z M 17.03125 -1.625 C 18.613281 -1.625 20.035156 -1.898438 21.296875 -2.453125 C 22.554688 -3.003906 23.632812 -3.796875 24.53125 -4.828125 C 25.4375 -5.859375 26.128906 -7.109375 26.609375 -8.578125 C 27.085938 -10.054688 27.328125 -11.707031 27.328125 -13.53125 C 27.328125 -15.457031 27.085938 -17.191406 26.609375 -18.734375 C 26.128906 -20.285156 25.441406 -21.609375 24.546875 -22.703125 C 23.660156 -23.796875 22.582031 -24.632812 21.3125 -25.21875 C 20.039062 -25.800781 18.613281 -26.09375 17.03125 -26.09375 C 15.445312 -26.09375 14.019531 -25.800781 12.75 -25.21875 C 11.476562 -24.632812 10.394531 -23.796875 9.5 -22.703125 C 8.613281 -21.609375 7.929688 -20.285156 7.453125 -18.734375 C 6.972656 -17.191406 6.734375 -15.457031 6.734375 -13.53125 C 6.734375 -11.707031 6.972656 -10.054688 7.453125 -8.578125 C 7.929688 -7.109375 8.613281 -5.859375 9.5 -4.828125 C 10.394531 -3.796875 11.476562 -3.003906 12.75 -2.453125 C 14.019531 -1.898438 15.445312 -1.625 17.03125 -1.625 Z M 17.03125 -1.625 "/></g></g></g><g fill="#ffffff" fill-opacity="1"><g transform="translate(131.321693, 199.359947)"><g><path d="M 9.359375 -5.71875 C 9.359375 -4.8125 9.410156 -4.070312 9.515625 -3.5 C 9.628906 -2.9375 9.863281 -2.503906 10.21875 -2.203125 C 10.582031 -1.910156 11.09375 -1.703125 11.75 -1.578125 C 12.414062 -1.460938 13.285156 -1.394531 14.359375 -1.375 L 14.359375 0 L 1.625 0 L 1.625 -1.375 C 2.457031 -1.394531 3.128906 -1.460938 3.640625 -1.578125 C 4.160156 -1.703125 4.566406 -1.90625 4.859375 -2.1875 C 5.148438 -2.476562 5.34375 -2.890625 5.4375 -3.421875 C 5.53125 -3.953125 5.578125 -4.632812 5.578125 -5.46875 L 5.578125 -22.25 C 5.578125 -23.09375 5.535156 -23.769531 5.453125 -24.28125 C 5.367188 -24.800781 5.203125 -25.207031 4.953125 -25.5 C 4.703125 -25.800781 4.332031 -26.003906 3.84375 -26.109375 C 3.363281 -26.222656 2.742188 -26.304688 1.984375 -26.359375 L 1.984375 -27.71875 L 22.78125 -27.71875 L 23.1875 -20.84375 L 21.921875 -20.84375 C 21.773438 -21.875 21.546875 -22.71875 21.234375 -23.375 C 20.921875 -24.039062 20.484375 -24.566406 19.921875 -24.953125 C 19.359375 -25.335938 18.644531 -25.601562 17.78125 -25.75 C 16.914062 -25.90625 15.835938 -25.984375 14.546875 -25.984375 L 9.96875 -25.984375 C 9.5625 -25.984375 9.359375 -25.78125 9.359375 -25.375 L 9.359375 -14.515625 C 10.515625 -14.515625 11.503906 -14.578125 12.328125 -14.703125 C 13.160156 -14.835938 13.84375 -15.070312 14.375 -15.40625 C 14.914062 -15.738281 15.332031 -16.191406 15.625 -16.765625 C 15.914062 -17.347656 16.09375 -18.097656 16.15625 -19.015625 L 17.421875 -19.015625 L 17.421875 -8.453125 L 16.15625 -8.453125 C 16.039062 -9.367188 15.847656 -10.125 15.578125 -10.71875 C 15.316406 -11.320312 14.925781 -11.789062 14.40625 -12.125 C 13.894531 -12.46875 13.234375 -12.707031 12.421875 -12.84375 C 11.609375 -12.988281 10.585938 -13.0625 9.359375 -13.0625 Z M 9.359375 -5.71875 "/></g></g></g><g fill="#ffffff" fill-opacity="1"><g transform="translate(155.441741, 199.359947)"><g><path d="M 9.359375 -15.234375 C 10.648438 -15.234375 11.734375 -15.3125 12.609375 -15.46875 C 13.492188 -15.625 14.191406 -15.867188 14.703125 -16.203125 C 15.222656 -16.535156 15.59375 -16.960938 15.8125 -17.484375 C 16.039062 -18.015625 16.15625 -18.644531 16.15625 -19.375 L 17.421875 -19.375 L 17.421875 -9.546875 L 16.15625 -9.546875 C 16.15625 -10.265625 16.050781 -10.882812 15.84375 -11.40625 C 15.644531 -11.9375 15.285156 -12.375 14.765625 -12.71875 C 14.253906 -13.070312 13.5625 -13.335938 12.6875 -13.515625 C 11.8125 -13.691406 10.703125 -13.78125 9.359375 -13.78125 L 9.359375 -5.65625 C 9.359375 -4.863281 9.453125 -4.207031 9.640625 -3.6875 C 9.835938 -3.175781 10.171875 -2.753906 10.640625 -2.421875 C 11.109375 -2.097656 11.722656 -1.867188 12.484375 -1.734375 C 13.253906 -1.609375 14.207031 -1.546875 15.34375 -1.546875 C 16.613281 -1.546875 17.691406 -1.632812 18.578125 -1.8125 C 19.460938 -2 20.203125 -2.304688 20.796875 -2.734375 C 21.398438 -3.171875 21.878906 -3.742188 22.234375 -4.453125 C 22.597656 -5.160156 22.898438 -6.039062 23.140625 -7.09375 L 24.515625 -7.09375 L 23.96875 0 L 1.625 0 L 1.625 -1.375 C 2.457031 -1.394531 3.128906 -1.460938 3.640625 -1.578125 C 4.160156 -1.703125 4.566406 -1.90625 4.859375 -2.1875 C 5.148438 -2.476562 5.34375 -2.890625 5.4375 -3.421875 C 5.53125 -3.953125 5.578125 -4.632812 5.578125 -5.46875 L 5.578125 -22.25 C 5.578125 -23.09375 5.535156 -23.769531 5.453125 -24.28125 C 5.367188 -24.800781 5.203125 -25.207031 4.953125 -25.5 C 4.703125 -25.800781 4.332031 -26.003906 3.84375 -26.109375 C 3.363281 -26.222656 2.742188 -26.304688 1.984375 -26.359375 L 1.984375 -27.71875 L 22.78125 -27.71875 L 23.109375 -21.390625 L 21.859375 -21.390625 C 21.710938 -22.347656 21.472656 -23.128906 21.140625 -23.734375 C 20.816406 -24.347656 20.375 -24.832031 19.8125 -25.1875 C 19.25 -25.550781 18.535156 -25.804688 17.671875 -25.953125 C 16.804688 -26.097656 15.765625 -26.171875 14.546875 -26.171875 L 9.96875 -26.171875 C 9.5625 -26.171875 9.359375 -25.96875 9.359375 -25.5625 Z M 9.359375 -15.234375 "/></g></g></g><g fill="#ffffff" fill-opacity="1"><g transform="translate(181.57779, 199.359947)"><g><path d="M 23.6875 -20.765625 C 23.6875 -18.847656 23.109375 -17.253906 21.953125 -15.984375 C 20.804688 -14.710938 18.972656 -13.859375 16.453125 -13.421875 L 24.40625 -3.859375 C 25.050781 -3.054688 25.765625 -2.484375 26.546875 -2.140625 C 27.328125 -1.796875 28.257812 -1.539062 29.34375 -1.375 L 29.34375 0 L 22.390625 0 L 13.578125 -11.296875 C 13.265625 -11.710938 12.96875 -12.039062 12.6875 -12.28125 C 12.414062 -12.519531 12.128906 -12.703125 11.828125 -12.828125 C 11.523438 -12.960938 11.175781 -13.046875 10.78125 -13.078125 C 10.382812 -13.117188 9.910156 -13.140625 9.359375 -13.140625 L 9.359375 -5.65625 C 9.359375 -4.757812 9.410156 -4.03125 9.515625 -3.46875 C 9.628906 -2.90625 9.859375 -2.46875 10.203125 -2.15625 C 10.554688 -1.84375 11.0625 -1.632812 11.71875 -1.53125 C 12.375 -1.425781 13.242188 -1.375 14.328125 -1.375 L 14.328125 0 L 1.625 0 L 1.625 -1.375 C 2.457031 -1.394531 3.128906 -1.460938 3.640625 -1.578125 C 4.160156 -1.703125 4.566406 -1.90625 4.859375 -2.1875 C 5.148438 -2.476562 5.34375 -2.890625 5.4375 -3.421875 C 5.53125 -3.953125 5.578125 -4.632812 5.578125 -5.46875 L 5.578125 -22.25 C 5.578125 -23.09375 5.535156 -23.769531 5.453125 -24.28125 C 5.367188 -24.800781 5.203125 -25.207031 4.953125 -25.5 C 4.703125 -25.800781 4.332031 -26.003906 3.84375 -26.109375 C 3.363281 -26.222656 2.742188 -26.304688 1.984375 -26.359375 L 1.984375 -27.71875 L 13.28125 -27.71875 C 16.59375 -27.71875 19.15625 -27.101562 20.96875 -25.875 C 22.78125 -24.65625 23.6875 -22.953125 23.6875 -20.765625 Z M 9.359375 -14.9375 L 11.921875 -14.9375 C 14.316406 -14.9375 16.097656 -15.375 17.265625 -16.25 C 18.429688 -17.125 19.015625 -18.570312 19.015625 -20.59375 C 19.015625 -22.539062 18.550781 -23.929688 17.625 -24.765625 C 16.695312 -25.609375 15.25 -26.03125 13.28125 -26.03125 L 9.96875 -26.03125 C 9.5625 -26.03125 9.359375 -25.828125 9.359375 -25.421875 Z M 9.359375 -14.9375 "/></g></g></g><g fill="#ffffff" fill-opacity="1"><g transform="translate(209.945849, 199.359947)"><g><path d="M 28.296875 -20.84375 L 26.8125 -20.84375 C 26.75 -21.875 26.582031 -22.738281 26.3125 -23.4375 C 26.050781 -24.132812 25.671875 -24.679688 25.171875 -25.078125 C 24.679688 -25.472656 24.066406 -25.753906 23.328125 -25.921875 C 22.585938 -26.085938 21.695312 -26.171875 20.65625 -26.171875 C 19.769531 -26.171875 19.054688 -26.148438 18.515625 -26.109375 C 17.984375 -26.078125 17.570312 -26.015625 17.28125 -25.921875 C 16.988281 -25.828125 16.800781 -25.710938 16.71875 -25.578125 C 16.632812 -25.441406 16.59375 -25.269531 16.59375 -25.0625 L 16.59375 -5.796875 C 16.59375 -5.023438 16.644531 -4.363281 16.75 -3.8125 C 16.863281 -3.257812 17.082031 -2.804688 17.40625 -2.453125 C 17.726562 -2.109375 18.195312 -1.847656 18.8125 -1.671875 C 19.425781 -1.492188 20.234375 -1.394531 21.234375 -1.375 L 21.234375 0 L 7.625 0 L 7.625 -1.375 C 8.632812 -1.394531 9.453125 -1.492188 10.078125 -1.671875 C 10.703125 -1.847656 11.175781 -2.109375 11.5 -2.453125 C 11.820312 -2.804688 12.035156 -3.257812 12.140625 -3.8125 C 12.253906 -4.363281 12.3125 -5.023438 12.3125 -5.796875 L 12.3125 -25.0625 C 12.3125 -25.269531 12.269531 -25.441406 12.1875 -25.578125 C 12.101562 -25.710938 11.929688 -25.828125 11.671875 -25.921875 C 11.421875 -26.015625 11.066406 -26.078125 10.609375 -26.109375 C 10.160156 -26.148438 9.550781 -26.171875 8.78125 -26.171875 C 7.84375 -26.171875 6.972656 -26.132812 6.171875 -26.0625 C 5.367188 -25.988281 4.671875 -25.773438 4.078125 -25.421875 C 3.492188 -25.078125 3.019531 -24.546875 2.65625 -23.828125 C 2.300781 -23.109375 2.113281 -22.113281 2.09375 -20.84375 L 0.75 -20.84375 L 0.75 -27.71875 L 27.9375 -27.71875 Z M 28.296875 -20.84375 "/></g></g></g><g fill="#ffffff" fill-opacity="1"><g transform="translate(238.853909, 199.359947)"><g><path d="M 17.5625 -10.046875 L 7.953125 -10.046875 C 7.546875 -9.054688 7.195312 -8.179688 6.90625 -7.421875 C 6.625 -6.671875 6.390625 -6.019531 6.203125 -5.46875 C 6.023438 -4.914062 5.898438 -4.445312 5.828125 -4.0625 C 5.753906 -3.675781 5.71875 -3.363281 5.71875 -3.125 C 5.71875 -2.457031 5.929688 -2 6.359375 -1.75 C 6.796875 -1.5 7.519531 -1.375 8.53125 -1.375 L 8.53125 0 L -0.21875 0 L -0.21875 -1.375 C 0.332031 -1.4375 0.804688 -1.53125 1.203125 -1.65625 C 1.597656 -1.78125 1.945312 -1.945312 2.25 -2.15625 C 2.550781 -2.375 2.816406 -2.65625 3.046875 -3 C 3.273438 -3.351562 3.492188 -3.78125 3.703125 -4.28125 L 13.0625 -27.71875 L 14.609375 -27.71875 L 22.78125 -7.421875 C 23.332031 -6.078125 23.8125 -5 24.21875 -4.1875 C 24.632812 -3.382812 25.03125 -2.78125 25.40625 -2.375 C 25.789062 -1.96875 26.207031 -1.703125 26.65625 -1.578125 C 27.101562 -1.460938 27.640625 -1.40625 28.265625 -1.40625 L 28.265625 0 L 16.53125 0 L 16.53125 -1.40625 C 17.800781 -1.40625 18.675781 -1.523438 19.15625 -1.765625 C 19.632812 -2.003906 19.875 -2.398438 19.875 -2.953125 C 19.875 -3.191406 19.859375 -3.410156 19.828125 -3.609375 C 19.804688 -3.816406 19.765625 -4.039062 19.703125 -4.28125 C 19.648438 -4.519531 19.566406 -4.789062 19.453125 -5.09375 C 19.347656 -5.394531 19.210938 -5.75 19.046875 -6.15625 Z M 8.671875 -11.84375 L 16.890625 -11.84375 L 12.890625 -22.46875 Z M 8.671875 -11.84375 "/></g></g></g><g fill="#ffffff" fill-opacity="1"><g transform="translate(266.645964, 199.359947)"><g><path d="M 3.203125 -1.984375 C 3.203125 -2.648438 3.429688 -3.210938 3.890625 -3.671875 C 4.347656 -4.128906 4.898438 -4.359375 5.546875 -4.359375 C 6.210938 -4.359375 6.773438 -4.128906 7.234375 -3.671875 C 7.691406 -3.210938 7.921875 -2.648438 7.921875 -1.984375 C 7.921875 -1.335938 7.691406 -0.785156 7.234375 -0.328125 C 6.773438 0.128906 6.210938 0.359375 5.546875 0.359375 C 4.898438 0.359375 4.347656 0.128906 3.890625 -0.328125 C 3.429688 -0.785156 3.203125 -1.335938 3.203125 -1.984375 Z M 4.6875 -7.453125 C 4.6875 -9.367188 4.664062 -11 4.625 -12.34375 C 4.59375 -13.6875 4.53125 -14.863281 4.4375 -15.875 C 4.351562 -16.882812 4.25 -17.785156 4.125 -18.578125 C 4.007812 -19.367188 3.882812 -20.1875 3.75 -21.03125 C 3.625 -21.695312 3.523438 -22.25 3.453125 -22.6875 C 3.378906 -23.132812 3.320312 -23.519531 3.28125 -23.84375 C 3.25 -24.175781 3.226562 -24.476562 3.21875 -24.75 C 3.207031 -25.019531 3.203125 -25.335938 3.203125 -25.703125 C 3.203125 -26.347656 3.410156 -26.90625 3.828125 -27.375 C 4.253906 -27.84375 4.828125 -28.078125 5.546875 -28.078125 C 6.265625 -28.078125 6.832031 -27.84375 7.25 -27.375 C 7.675781 -26.90625 7.890625 -26.347656 7.890625 -25.703125 C 7.890625 -25.367188 7.890625 -25.0625 7.890625 -24.78125 C 7.890625 -24.507812 7.867188 -24.203125 7.828125 -23.859375 C 7.796875 -23.523438 7.742188 -23.125 7.671875 -22.65625 C 7.597656 -22.1875 7.488281 -21.59375 7.34375 -20.875 C 7.195312 -20.082031 7.0625 -19.296875 6.9375 -18.515625 C 6.820312 -17.742188 6.726562 -16.859375 6.65625 -15.859375 C 6.582031 -14.859375 6.519531 -13.6875 6.46875 -12.34375 C 6.425781 -11 6.40625 -9.367188 6.40625 -7.453125 Z M 4.6875 -7.453125 "/></g></g></g></svg>